# xmcd CD database file
#
# Track frame offsets:
#	150
#	18137
#	36455
#	54407
#
# Disc length: 966 seconds
#
# Revision: 0
# Processed by: cddbd v1.5.1PL0 Copyright (c) Steve Scherf et al.
# Submitted via: CDex 1.51
#
DISCID=2903c404
DTITLE=さっぱりネットワーク - 今夜だけのステージ
DYEAR=2000
DGENRE=JPop
TTITLE0=今夜だけのステージ
TTITLE1=仲間どうし
TTITLE2=今夜だけのステージ(オリジナルカラオケ)
TTITLE3=仲間どうし(オリジナルカラオケ)
EXTD=YEAR: 2000
EXTT0=
EXTT1=
EXTT2=
EXTT3=
PLAYORDER=
